<?xml version="1.0" standalone="no"?>
<!DOCTYPE svg PUBLIC "-//W3C//DTD SVG 1.1//EN" "http://www.w3.org/Graphics/SVG/1.1/DTD/svg11.dtd" >
<svg xmlns="http://www.w3.org/2000/svg">
<metadata>Generated by IcoMoon</metadata>
<defs>
<font id="icons-weld" horiz-adv-x="1024">
<font-face units-per-em="1024" ascent="960" descent="-64" />
<missing-glyph horiz-adv-x="1024" />
<glyph unicode="&#x20;" horiz-adv-x="512" d="" />
<glyph unicode="&#xe655;" glyph-name="inspector" horiz-adv-x="1019" d="M512.683 953.002c-282.283 0-511.317-228.352-511.317-509.611s229.035-509.611 511.317-509.611 511.317 228.352 511.317 509.611-229.035 509.611-511.317 509.611zM678.229 221.184h-331.435c-30.72 0-55.637 22.528-55.637 50.517s24.917 50.517 55.637 50.517h331.435c30.72 0 55.637-22.528 55.637-50.517s-24.917-50.517-55.637-50.517zM678.229 391.509h-331.435c-30.72 0-55.637 22.528-55.637 50.517s24.917 50.517 55.637 50.517h331.435c30.72 0 55.637-22.528 55.637-50.517 0-27.648-24.917-50.517-55.637-50.517zM678.229 562.176h-331.435c-30.72 0-55.637 22.528-55.637 50.517s24.917 50.517 55.637 50.517h331.435c30.72 0 55.637-22.528 55.637-50.517s-24.917-50.517-55.637-50.517z" />
<glyph unicode="&#xe656;" glyph-name="rename" d="M170-30.267c-80 0-80 96 0 96h696c68 0 68-96 0-96h-696zM128 173.733c-12 0-18 6-18 16v136c0 6 0 12 14 24l562 560c8 8 18 8 28 0l136-136c8-8 8-16 0-24l-572-570c-4-4-8-6-14-6h-136z" />
<glyph unicode="&#xe657;" glyph-name="magnify" d="M397.4 179.133c-214 0-388.2 174.2-388.2 388.2s174.2 388.2 388.2 388.2 388.2-174.2 388.2-388.2-174-388.2-388.2-388.2zM397.4 904.733c-186 0-337.4-151.4-337.4-337.4s151.4-337.4 337.4-337.4 337.4 151.4 337.4 337.4c0 186.2-151.2 337.4-337.4 337.4zM988.2-69.467c-6.4 0-13 2.4-18 7.4l-344.8 344.8c-10 10-10 26 0 36s26 10 36 0l344.8-344.8c10-10 10-26 0-36-5-4.8-11.4-7.4-18-7.4z" />
<glyph unicode="&#xe658;" glyph-name="left_panel" d="M955.597 955.733h-887.603c-37.683 0-68.403-30.72-68.403-68.403v-887.603c0-37.683 30.72-68.403 68.403-68.403h887.603c37.683 0 68.403 30.72 68.403 68.403v887.603c0 37.683-30.72 68.403-68.403 68.403zM273.203-34.27h-204.8c-22.528 0-33.997 11.469-33.997 33.997v887.603c0 22.528 11.469 33.997 33.997 33.997h204.8v-955.597zM682.803 443.733l-170.803-102.4v68.403h-136.397v68.403h136.397v67.994l170.803-102.4z" />
<glyph unicode="&#xe659;" glyph-name="right_panel" d="M72.499-68.267h887.603c37.683 0 68.403 30.72 68.403 68.403v887.194c0 37.683-30.72 68.403-68.403 68.403h-887.603c-37.683 0-68.403-30.72-68.403-68.403v-887.603c0-37.274 30.72-67.994 68.403-67.994zM754.893 921.736h204.8c22.528 0 33.997-11.469 33.997-33.997v-887.603c0-22.528-11.469-33.997-33.997-33.997h-204.8v955.597zM345.293 443.733l170.803 102.4v-68.403h136.397v-68.403h-136.397v-67.994l-170.803 102.4z" />
<glyph unicode="&#xe65a;" glyph-name="edit" d="M662.733 315.119c22.528 0 40.96 18.432 40.96 40.96s-18.432 40.96-40.96 40.96c-22.528 0-40.96-18.432-40.96-40.96 0-22.938 18.022-40.96 40.96-40.96zM662.733 519.509c22.528 0 40.96 18.432 40.96 40.96s-18.432 40.96-40.96 40.96c-22.528 0-40.96-18.432-40.96-40.96s18.022-40.96 40.96-40.96zM955.597 955.733h-887.603c-37.683 0-68.403-30.72-68.403-68.403v-887.603c0-37.683 30.72-68.403 68.403-68.403h887.603c37.683 0 68.403 30.72 68.403 68.403v887.603c0 37.683-30.72 68.403-68.403 68.403zM662.733 444.962c49.152 0 89.293-40.141 89.293-89.293s-40.141-89.293-89.293-89.293c-49.152 0-89.293 40.141-89.293 89.293 0 16.794 4.915 32.768 13.107 46.285l-44.646 22.528-202.752-90.522-78.643 29.901 213.811 94.208-213.811 94.208 79.462 29.082 201.933-89.702 44.646 22.528c-8.192 13.517-13.107 29.491-13.107 46.285 0 49.152 40.141 89.293 89.293 89.293s89.293-40.141 89.293-89.293-40.141-89.293-89.293-89.293c-45.466 0.41-44.237-26.214 0-26.214z" />
<glyph unicode="&#xe65b;" glyph-name="italic" d="M955.597 955.733h-887.603c-37.683 0-68.403-30.72-68.403-68.403v-887.603c0-37.683 30.72-68.403 68.403-68.403h887.603c37.683 0 68.403 30.72 68.403 68.403v887.603c0 37.683-30.72 68.403-68.403 68.403zM530.022 272.93h-125.338l98.304 378.88h125.338l-98.304-378.88z" />
<glyph unicode="&#xe65c;" glyph-name="bold" d="M1026.458 869.307c0 45.056-36.454 81.92-81.92 81.92h-860.16c-45.056 0-81.92-36.864-81.92-81.92v-860.16c0-45.056 36.864-81.92 81.92-81.92h860.16c45.056 0 81.92 36.864 81.92 81.92v860.16zM548.864 523.195c8.192 6.963 12.288 16.794 12.288 30.31 0 15.565-4.506 26.624-13.107 33.178-9.011 6.963-22.938 10.24-42.598 10.24h-43.008v-84.378h45.875c18.432 0 32.358 3.686 40.55 10.65zM568.934 409.327c0-13.107-4.096-23.347-12.698-30.72s-20.48-11.059-36.454-11.059h-57.344v87.245h61.44c29.901 0 45.056-15.155 45.056-45.466zM622.592 327.407c-22.528-18.022-56.115-27.034-100.352-27.443h-148.275v364.544h130.662c46.694 0 82.33-8.602 106.906-25.805s36.454-42.189 36.454-74.957c0-18.842-4.506-34.816-13.107-48.333s-21.299-23.347-38.093-29.491c18.842-4.915 33.587-14.336 43.827-27.853s15.155-30.31 15.155-49.971c0.41-36.045-10.65-62.669-33.178-80.691z" />
<glyph unicode="&#xe65d;" glyph-name="crop" d="M941.261 958.6h-860.16c-45.056 0-81.92-36.864-81.92-81.92v-860.16c0-45.056 36.864-81.92 81.92-81.92h860.16c45.056 0 81.92 36.864 81.92 81.92v860.16c0 45.466-36.864 81.92-81.92 81.92zM410.010 57.48l101.171 163.84 101.171-163.84h-202.342zM511.181 671.88l-101.171 163.84h201.933l-100.762-163.84z" />
<glyph unicode="&#xe65e;" glyph-name="switch_vertical" horiz-adv-x="1014" d="M277.418 302.984v591.554c0 81.594-122.39 81.594-122.39 0v-591.554h-155.028l216.223-371.251 216.223 371.251h-155.028zM736.382 584.482v-591.554c0-81.594 122.39-81.594 122.39 0v591.554h155.028l-216.223 371.251-216.223-371.251h155.028z" />
<glyph unicode="&#xe65f;" glyph-name="switch_horizontal" horiz-adv-x="1034" d="M659.020 675.058h-596.305c-82.249 0-82.249 123.373 0 123.373h596.305v156.273l374.233-217.96-374.233-217.96v156.273zM375.261 212.408h596.305c82.249 0 82.249-123.373 0-123.373h-596.305v-156.273l-374.233 217.96 374.233 217.96v-156.273z" />
<glyph unicode="&#xe660;" glyph-name="screen_previous" d="M417.5 203.733v192h548c78 0 78 96 0 96h-548v192l-416-240 416-240z" />
<glyph unicode="&#xe661;" glyph-name="screen_next" d="M608 203.733v192h-548c-78 0-78 96 0 96h548v192l416-240-416-240z" />
<glyph unicode="&#xe662;" glyph-name="triangle_right" d="M256-68.267v1024l512-512z" />
<glyph unicode="&#xe663;" glyph-name="triangle_left" d="M768 955.733v-1024l-512 512z" />
<glyph unicode="&#xe664;" glyph-name="triangle" d="M116 751.733h792c36 0 54-36 32-64l-402-530c-14-20-38-20-52 0l-402 530c-22 28-4 64 32 64z" />
<glyph unicode="&#xe665;" glyph-name="back_filled" d="M988 783.733c20 0 34-12 34-34v-612c0-24-14-34-34-34h-644c-8 0-20 2-28 12l-292 300c-20 20-20 38 0 60l292 296c8 10 20 12 28 12h644z" />
<glyph unicode="&#xe666;" glyph-name="project" d="M990 785.733h-648c-8 0-20-2-28-12l-294-298c-20-22-20-40 0-60l294-302c8-10 20-12 28-12h648c20 0 34 10 34 34v616c0 22-14 34-34 34zM952 713.733v-538h-596l-264 270 264 268h596z" />
<glyph unicode="&#xe667;" glyph-name="sticky" d="M855 254.333c-8 50.8-31 95.8-63.8 135.6-32.8 38.8-75.8 71.8-123.6 94.8v246c59.8 35.8 112.6 89.8 132.6 153.6 9 34.8-19 68.8-58.8 68.8h-458.8c-39.8 0-68.8-33.8-57.8-68.8 19-62.8 72.8-117.6 131.6-153.6v-246.2c-47.8-24-90.8-55.8-123.6-95.8-32.8-38.8-55.8-85.8-63.8-134.6-4-23 17-43.8 41.8-43.8h232.2l69-278 68.8 279.2h231.2c27-0.2 47 19.8 43 42.8z" />
<glyph unicode="&#xe668;" glyph-name="flag" d="M968 924.333l-34-17c-1 0-7-2-18-7-24-10-67-23-125-33-29-5-61-8-96-8-83 0-161 16-237 48-71 32-146 47-221 47-80 0-142-18-181-31v-940c0-27 21-48 48-48s49 21 49 48v376c24 4 52 7 83 7 69 0 138-15 205-43 40-17 81-31 124-39 43-9 86-13 130-13 75 0 138 13 183 25 23 7 42 13 55 19 13 5 19 8 20 8l15 7v594z" />
<glyph unicode="&#xe669;" glyph-name="link" d="M942.080 954.504h-860.16c-45.056 0-81.92-36.864-81.92-81.92v-860.16c0-45.056 36.864-81.92 81.92-81.92h860.16c45.056 0 81.92 36.864 81.92 81.92v860.16c0 45.056-36.864 81.92-81.92 81.92zM674.202 299.554h-324.403c-82.33 0-148.685 63.898-148.685 142.95s66.765 142.95 148.685 142.95h323.994c82.33 0 148.685-63.898 148.685-142.95 0.41-79.053-66.355-142.95-148.275-142.95zM673.792 496.162h-323.994c-30.72 0-55.706-24.166-55.706-53.658s24.986-53.658 55.706-53.658h323.994c30.72 0 55.706 24.166 55.706 53.658 0.41 29.491-24.576 53.658-55.706 53.658z" />
<glyph unicode="&#xe66a;" glyph-name="unlock" d="M943.4 877.933c-47.2 48.4-114.4 77.8-188.8 77.8-72 0-140.4-29.4-188.6-77.8-47.2-48.4-77.8-114.4-77.8-188.6v-150.4h-457.4c-17 0-30.8-13.8-30.8-30.8v-545.6c0-17 13.8-30.8 30.8-30.8h580.4c17 0 30.8 13.8 30.8 30.8v545.6c0 17-13.8 30.8-30.8 30.8h-16.8v148.2c0 88.4 70.6 161.6 158.8 162.4 89.2 0.8 162-71.4 162-160.4v-162.2h107.4v162.2c-0.2 74.4-30.8 140.4-79.2 188.8z" />
<glyph unicode="&#xe66b;" glyph-name="lock" d="M779 538.933v150.4c0 74.2-30.6 140.4-79 188.6-47.2 48.4-114.4 77.8-188.6 77.8-72 0-140.4-29.4-188.6-77.8-47.2-48.4-77.8-114.4-77.8-188.6v-150.4h-23c-17 0-30.8-13.8-30.8-30.8v-545.6c0-17 13.8-30.8 30.8-30.8h580.4c17 0 30.8 13.8 30.8 30.8v545.6c0 17-13.8 30.8-30.8 30.8h-23.4zM351 689.133c0 88.4 72 160.4 160.4 160.4s160.4-72 160.4-160.4v-150.4h-320.8v150.4z" />
<glyph unicode="&#xe66c;" glyph-name="add_to_library" d="M622 676.133h-83v241.2c0 14.6-12.4 27-27 27s-27-12.4-27-27v-241.2h-83l110-190.6 110 190.6zM833 549.133l-171 98.6-27-46.2 142.2-81.2-265.2-152.8-265 152 142.2 81-27.2 46.2-171.2-97.6c-15.8-9.2-25-24.8-25-42.6v-343c0-17.8 9-33.4 25-42.6l296.6-171.2c8-6 17.8-6.6 24.6-6.6s16.6 0.8 24.6 6.6l296.6 171.2c15.8 9.2 25 24.8 25 42.6v344c-0.2 16.4-10 32.8-25.2 41.6zM804.2 473.333v-275.4l-238.2 138.2 238.2 137.2zM777.2 151.533l-238.2-137.2v274.6l238.2-137.4zM458.2 335.933l-238.2-138.2v275.6l238.2-137.4zM485 288.933v-274.4l-238.2 137.2 238.2 137.2z" />
<glyph unicode="&#xe66d;" glyph-name="user" d="M937.574 952.866h-860.16c-45.056 0-81.92-36.864-81.92-81.92v-860.16c0-45.056 36.864-81.92 81.92-81.92h860.16c45.056 0 81.92 36.864 81.92 81.92v860.16c0 45.056-36.454 81.92-81.92 81.92zM507.494 664.098c45.056 0 81.51-36.454 81.51-81.51s-36.454-81.51-81.51-81.51c-45.056 0-81.51 36.454-81.51 81.51s36.454 81.51 81.51 81.51zM320.307 297.506l24.576 74.138c9.011 27.853 35.226 46.694 64.717 46.694h196.198c29.491 0 55.706-18.842 64.717-46.694l24.576-74.138h-374.784z" />
<glyph unicode="&#xe66e;" glyph-name="help_chat" d="M940 955.733h-858c-46 0-82-38-82-84v-692c0-46 36-82 82-82h262l166-166 166 166h264c46 0 84 36 84 82v692c0 46-38 84-84 84z" />
<glyph unicode="&#xe66f;" glyph-name="help_videos" d="M942.080 955.733h-860.16c-45.056 0-81.92-36.864-81.92-81.92v-860.16c0-45.056 36.864-81.92 81.92-81.92h860.16c45.056 0 81.92 36.864 81.92 81.92v860.16c0 45.056-36.864 81.92-81.92 81.92zM389.12 279.893v327.68l286.72-163.84-286.72-163.84z" />
<glyph unicode="&#xe670;" glyph-name="help_getting_started" d="M939.6 957.133h-855.2c-46 0-84-36-84-82v-858c0-46 38-86 84-86h855.4c44 0 84 40 84 86v858c-0.2 46-40.2 82-84.2 82zM512 41.733c-222 0-402 180.2-402 402.4s180 402.4 402 402.4 402-180.2 402-402.4-180-402.4-402-402.4zM512.2 542.933c-43.6-25.6-79.8-61.8-105.4-105.4l-131.4-223.8 223.6 131.4c43.6 25.6 79.8 61.8 105.4 105.4l131.4 223.8-223.6-131.4zM505.6 393.933c-27.8 0-50.2 22.6-50.2 50.2 0 27.8 22.4 50.2 50.2 50.2s50.2-22.6 50.2-50.2c0-27.8-22.4-50.2-50.2-50.2z" />
<glyph unicode="&#xe671;" glyph-name="help" d="M513.229 954.504c-282.624 0-511.59-228.966-511.59-511.59s228.966-511.59 511.59-511.59 511.59 228.966 511.59 511.59c-0.41 282.624-229.376 511.59-511.59 511.59zM555.827 204.936c-12.288-11.059-27.853-16.794-46.694-16.794s-34.406 5.734-46.694 16.794c-12.288 11.059-18.842 25.395-18.842 42.598s6.144 31.539 18.842 42.598c12.288 11.059 27.853 16.794 46.694 16.794s34.406-5.734 46.694-16.794c12.288-11.059 18.842-25.395 18.842-42.598-0.41-17.613-6.554-31.539-18.842-42.598zM666.419 517.461c-7.782-15.974-20.070-31.949-37.274-48.742l-40.141-37.274c-11.469-11.059-19.251-22.118-23.757-33.587s-6.963-26.214-7.373-43.827h-99.942c0 33.997 3.686 61.030 11.469 80.691s20.070 36.864 37.274 51.2c17.203 14.336 30.31 27.853 39.322 39.731s13.517 25.395 13.517 39.731c0 35.226-15.155 52.838-45.466 52.838-13.926 0-25.395-5.325-33.997-15.565s-13.107-24.166-13.517-41.779h-117.965c0.41 46.694 15.155 83.149 44.237 108.954s69.632 38.912 121.651 38.912c52.019 0 92.16-11.878 120.832-36.045s43.008-58.163 43.008-102.4c-0.41-19.661-4.096-37.274-11.878-52.838z" />
<glyph unicode="&#xe672;" glyph-name="screens" d="M100.774 398.121h210v-210h-210v210zM100.774 700.539h210v-210h-210v210zM711.258 398.121h210v-210h-210v210zM711.258 700.539h210v-210h-210v210zM406.016 398.121h210v-210h-210v210zM406.016 700.539h210v-210h-210v210z" />
<glyph unicode="&#xe673;" glyph-name="social_vimeo" horiz-adv-x="1173" d="M1023.194 683.001c0-204.478-358.702-679.28-561.446-679.28-58.918 0-109.17 55.452-150.758 166.354-36.39 133.43-103.972 466.14-180.218 466.14-8.664 0-34.658-15.596-81.444-46.788l-48.52 60.65c79.71 69.314 225.27 225.272 301.516 225.272 77.978 0 128.232-46.788 145.56-162.888 25.992-154.224 51.986-389.894 117.834-389.894 55.452 0 162.888 187.148 164.622 254.73 1.732 57.184-17.328 86.642-69.314 86.642-24.26 0-48.52-5.198-74.514-15.596 50.252 162.888 145.56 237.402 287.654 237.402 105.706 0 149.028-71.046 149.028-202.744z" />
<glyph unicode="&#xe674;" glyph-name="social_tumblr" horiz-adv-x="589" d="M534 137.733c-10-4-22-8-38-12-62-16-144-10-144 96v318h206v156h-206v260h-150c0 0-6 0-6-8-10-102-60-224-202-276v-132h104v-334c0-134 102-274 306-274 34 0 150 18 178 60l-48 146z" />
<glyph unicode="&#xe675;" glyph-name="social_twitter" horiz-adv-x="1035" d="M708 859.733c-114 0-210-94-210-210 0-16 2-32 6-48-174 10-328 92-432 220-18-32-30-68-30-106 0-72 38-138 94-174-34 2-66 10-96 26 0-2 0-2 0-4 0-100 74-186 170-204-26-8-72-10-94-6 26-82 104-142 194-144-72-56-162-92-260-92-18 0-34 2-50 4 92-60 204-94 322-94 386 0 598 320 598 598 0 8 0 18 0 28 40 28 76 66 104 106-38-16-78-26-120-32 42 26 76 68 92 118-40-24-86-42-132-52-40 40-96 66-156 66z" />
<glyph unicode="&#xe676;" glyph-name="social_facebook" horiz-adv-x="476" d="M446.342 443.733h-135.141v-480.5h-198.957v480.5h-95.725v168.926h95.725v110.741c0 144.526 82.586 200.834 200.834 200.834h148.28v-165.172c0 0-99.479 0-108.863 0-24.401 0-41.293-15.016-41.293-46.924v-99.479h152.034l-16.893-168.926z" />
<glyph unicode="&#xe677;" glyph-name="linkedin_social" d="M573.6 519.333v2.2c-0.4-0.8-1-1.6-1.4-2.2h1.4zM234.2-42.867h-218.6v657.4h218.6v-657.4zM124.8 704.333h-1.4c-73.4 0-120.8 50.6-120.8 113.6 0 64.4 49 113.6 123.6 113.6 74.8 0 120.8-49.2 122.2-113.6 0-63-47.4-113.6-123.6-113.6zM1022.2-42.867h-218.6v351.6c0 88.4-31.6 148.8-110.8 148.8-60.2 0-96.4-40.8-112.2-80-5.8-14-7.2-33.6-7.2-53.4v-367.2h-218.4c0 0 2.8 595.8 0 657.4h218.4v-93c29.2 44.8 81 108.4 197 108.4 143.8 0 251.6-93.8 251.6-295.8v-376.8z" />
<glyph unicode="&#xe678;" glyph-name="google_plus_social" d="M641.024 519.509h-320.717v-135.578h183.091c-27.443-72.090-97.075-123.29-178.995-123.29-105.677 0-191.283 85.606-191.283 191.283s85.606 191.283 191.283 191.283c47.104 0 89.702-17.203 123.699-45.056l95.437 93.798c-57.344 52.838-134.758 85.197-219.136 85.197-179.405 0-324.813-145.408-324.813-324.813s145.408-324.813 324.813-324.813 324.813 145.408 324.813 324.813c0 23.347-2.458 46.285-6.963 67.994h-1.229v-0.819zM910.131 509.269v113.050h-82.33v-113.050h-113.050v-81.92h113.050v-113.050h82.33v113.050h113.050v81.92h-113.050z" />
<glyph unicode="&#xe679;" glyph-name="pinterest_social" d="M591.2 215.733c-63.6 0-123.6 34.4-144 73.4 0 0-34.2-135.8-41.4-162-25.6-92.6-100.6-185.4-106.4-193-4-5.2-13-3.6-14 3.4-1.6 11.8-20.8 128.6 1.8 224 11.4 47.8 75.8 321.2 75.8 321.2s-18.8 37.6-18.8 93.2c0 87.4 50.6 152.6 113.8 152.6 53.6 0 79.4-40.2 79.4-88.6 0-54-34.2-134.4-52-209.2-14.8-62.6 31.4-113.6 93-113.6 111.6 0 187 143.4 187 313.4 0 129.2-87 226-245.4 226-178.8 0-290.2-133.4-290.2-282.4 0-51.4 15.2-87.6 38.8-115.6 10.8-12.8 12.4-18 8.4-32.8-2.8-10.8-9.2-37-12-47.4-3.8-15-16-20.2-29.6-14.8-82.2 34-120.6 124.2-120.6 225.8 0 167.4 141.2 368.2 421.4 368.2 225 0 373.2-162.8 373.2-337.8 0-231.2-128.6-404-318.2-404z" />
<glyph unicode="&#xe67a;" glyph-name="back" d="M1016.994 147.312h-719.495l-297.499 269.474 297.499 269.474h719.495z" />
<glyph unicode="&#xe67b;" glyph-name="screen_remove" horiz-adv-x="765" d="M713.387 826.026h-184.32v51.2c0 44.373-37.547 78.507-81.92 78.507h-129.707c-44.373 0-81.92-34.133-81.92-78.507v-51.2h-184.32c-27.307 0-51.2-20.48-51.2-51.2s23.893-51.2 51.2-51.2h662.187c27.307 0 51.2 23.893 51.2 51.2s-23.893 51.2-51.2 51.2zM460.8 826.026h-157.013v51.2c0 6.827 6.827 10.24 13.653 10.24h129.707c6.827 0 13.653-3.413 13.653-10.24v-51.2zM703.147 6.826c-3.413-40.96-40.96-75.093-85.333-75.093h-471.040c-44.373 0-81.92 34.133-85.333 75.093v593.92h641.707v-593.92z" />
<glyph unicode="&#xe67c;" glyph-name="close" d="M1001.814 826.78l-382.007-382.7 382.7-382.7c29.118-29.118 29.118-79.036 0-108.154s-79.036-29.118-108.154 0l-382.7 382.7-382.7-382.7c-29.118-29.118-79.036-29.118-108.154 0s-29.118 79.036 0 108.154l382.7 382.7-382.7 382.7c-29.118 29.118-29.118 79.036 0 108.154s79.036 29.118 108.154 0l382.7-382.7 382.7 382.7c29.118 29.118 79.036 29.118 108.154 0s28.425-79.729-0.693-108.154z" />
<glyph unicode="&#xe67d;" glyph-name="screen_add" d="M967.68 387.413h-399.36v-399.36c0-30.208-26.112-56.32-56.32-56.32s-56.32 26.112-56.32 56.32v399.36h-399.36c-30.208 0-56.32 26.112-56.32 56.32s26.112 56.32 56.32 56.32h399.36v399.36c0 30.208 26.112 56.32 56.32 56.32s56.32-26.112 56.32-56.32v-399.36h399.36c30.208 0 56.32-26.112 56.32-56.32s-26.112-56.32-56.32-56.32z" />
<glyph unicode="&#xe67e;" glyph-name="triangle_right2" d="M0-68.267v1024l908-512z" />
<glyph unicode="&#xe67f;" glyph-name="logout" d="M938.803 952.866h-860.16c-45.056 0-81.92-36.864-81.92-81.92v-860.16c0-45.056 36.864-81.92 81.92-81.92h860.16c45.056 0 81.92 36.864 81.92 81.92v860.16c0 45.056-36.864 81.92-81.92 81.92zM478.003 687.035h61.44v-257.229h-61.44v257.229zM508.723 194.696c-135.578 0-245.76 110.182-245.76 245.76 0 95.437 54.477 178.176 133.939 218.726v-71.68c-44.646-33.587-72.499-86.835-72.499-147.046 0-101.581 82.739-184.32 184.32-184.32s184.32 82.739 184.32 184.32c0 58.982-29.082 112.23-72.499 146.227v72.909c79.462-40.55 133.939-123.29 133.939-218.726 0-136.397-110.182-246.17-245.76-246.17z" />
<glyph unicode="&#xe680;" glyph-name="select" d="M68.403 955.733c-37.683 0-68.403-30.72-68.403-68.403v-887.603c0-37.683 30.72-68.403 68.403-68.403h955.597v1024.41h-955.597zM660.685 197.973l-93.389-36.864-73.728 186.368-100.352-36.864v428.032l286.72-317.85-93.389-36.864 74.138-185.958z" />
<glyph unicode="&#xe681;" glyph-name="box" d="M4.096 955.733v-1024h1024v1024h-1024zM686.899 272.93h-341.197v341.197h341.197v-341.197z" />
<glyph unicode="&#xe682;" glyph-name="text" d="M0 955.733v-1024h1024v1024h-1024zM682.803 476.911h-102.4v-240.026h-136.806v240.026h-102.4v135.578h341.606v-135.578z" />
<glyph unicode="&#xe683;" glyph-name="image" d="M0 955.733v-1024h1024v1024h-1024zM271.565 308.975l165.478 237.158 74.957-116.736 76.186 116.736 163.021-237.158h-479.642z" />
<glyph unicode="&#xe684;" glyph-name="run" d="M942.080 955.733h-860.16c-45.056 0-81.92-36.864-81.92-81.92v-860.16c0-45.056 36.864-81.92 81.92-81.92h860.16c45.056 0 81.92 36.864 81.92 81.92v860.16c0 45.056-36.864 81.92-81.92 81.92zM389.12 279.893v327.68l286.72-163.84-286.72-163.84z" />
<glyph unicode="&#xe685;" glyph-name="share" d="M1024 873.813v-860.16c0-45.056-36.864-81.92-81.92-81.92h-860.16c-45.056 0-81.92 36.864-81.92 81.92v860.16c0 45.056 36.864 81.92 81.92 81.92h860.16c45.056 0 81.92-36.864 81.92-81.92zM630.374 505.583l-118.374 204.8-118.374-204.8h67.174v-122.88h102.4v122.88h67.174zM677.478 382.703v-105.677h-330.957v105.677h-59.802v-124.518c0-22.528 18.432-40.96 40.96-40.96h368.64c22.528 0 40.96 18.432 40.96 40.96v124.518h-59.802z" />
<glyph unicode="&#xe686;" glyph-name="text_align_left" d="M1026.458-72.773h-942.080c-45.056 0-81.92 36.864-81.92 81.92v860.16c0 45.056 36.864 81.92 81.92 81.92h942.080v-1024zM493.978 295.867h-163.84v-81.92h163.84v81.92zM575.898 418.747h-245.76v-81.92h245.76v81.92zM739.738 541.627h-409.6v-81.92h409.6v81.92zM575.898 664.507h-245.76v-81.92h245.76v81.92z" />
<glyph unicode="&#xe687;" glyph-name="text_align_center" d="M1026.458-72.773h-1024v1024h1024v-1024zM616.858 295.867h-163.84v-81.92h163.84v81.92zM657.818 418.747h-245.76v-81.92h245.76v81.92zM739.738 541.627h-409.6v-81.92h409.6v81.92zM657.818 664.507h-245.76v-81.92h245.76v81.92z" />
<glyph unicode="&#xe688;" glyph-name="text_align_right" d="M2.458 951.227h942.080c45.056 0 81.92-36.864 81.92-81.92v-860.16c0-45.056-36.864-81.92-81.92-81.92h-942.080v1024zM534.938 213.947h163.84v81.92h-163.84v-81.92zM453.018 336.827h245.76v81.92h-245.76v-81.92zM289.178 459.707h409.6v81.92h-409.6v-81.92zM453.018 582.587h245.76v81.92h-245.76v-81.92z" />
<glyph unicode="&#xe689;" glyph-name="text_align_justify" d="M942.080-68.267h-860.16c-45.056 0-81.92 36.864-81.92 81.92v860.16c0 45.056 36.864 81.92 81.92 81.92h860.16c45.056 0 81.92-36.864 81.92-81.92v-860.16c0-45.466-36.454-81.92-81.92-81.92zM737.28 300.373h-409.6v-81.92h409.6v81.92zM737.28 423.253h-409.6v-81.92h409.6v81.92zM737.28 546.133h-409.6v-81.92h409.6v81.92zM737.28 669.013h-409.6v-81.92h409.6v81.92z" />
<glyph unicode="&#xe68a;" glyph-name="text_color" d="M955.597 955.733h-887.194v-307.2h272.794v-716.8h341.606v716.8h272.794z" />
<glyph unicode="&#xe68b;" glyph-name="fill_color" d="M1023.181 443.323c0-282.544-229.047-511.59-511.59-511.59s-511.59 229.047-511.59 511.59c0 282.544 229.047 511.59 511.59 511.59s511.59-229.047 511.59-511.59z" />
<glyph unicode="&#xe68c;" glyph-name="fill_none" d="M517.734 954.504l-517.325-517.325c-1.638-33.997 2.048-67.584 9.011-100.762l607.437 606.618c-33.178 7.373-67.174 11.059-99.123 11.469zM945.357 710.792l-703.283-703.283c24.166-14.746 48.742-27.443 74.547-37.683l666.829 666.829c-10.65 25.395-23.347 50.381-38.093 74.138zM1009.664 550.639l-607.437-607.437c33.178-7.373 67.174-11.059 100.762-11.469l518.144 518.144c-0.41 33.587-4.506 67.584-11.469 100.762zM871.219 805c-9.421 9.421-19.251 18.432-29.491 27.034l-720.896-720.896c8.602-9.83 17.613-19.661 27.034-29.491 9.421-9.421 19.251-18.022 29.082-26.624l720.896 720.896c-8.192 9.83-17.203 19.661-26.624 29.082zM702.464 916.821l-666.829-666.829c10.24-25.805 22.938-50.381 37.683-74.547l703.693 703.693c-23.757 14.746-48.742 27.443-74.547 37.683zM147.866 805c-68.813-69.222-114.278-153.19-135.168-241.664l376.832 376.832c-88.474-21.299-172.442-66.355-241.664-135.168zM871.219 81.237c69.222 69.222 114.278 153.6 135.578 242.074l-377.651-377.651c88.883 21.299 172.851 66.355 242.074 135.578z" />
<glyph unicode="&#xe68d;" glyph-name="border_color" d="M512 955.733c-282.624 0-512-229.376-512-512s229.376-512 512-512c282.624 0 512 229.376 512 512s-229.376 512-512 512zM512 239.343c-113.050 0-204.39 91.341-204.39 204.39s91.341 204.39 204.39 204.39c113.050 0 204.39-91.341 204.39-204.39s-91.341-204.39-204.39-204.39z" />
<glyph unicode="&#xe68e;" glyph-name="move_back" d="M942.080 955.733h-942.080v-1024h942.080c45.056 0 81.92 36.864 81.92 81.92v860.16c0 45.056-36.864 81.92-81.92 81.92zM204.8 218.453l81.92 122.88h225.28l-118.374 204.8h67.174v122.88h102.4v-122.88h67.174l-118.374-204.8h225.28l81.92-122.88h-614.4z" />
<glyph unicode="&#xe68f;" glyph-name="move_front" d="M81.92 955.733c-45.056 0-81.92-36.864-81.92-81.92v-860.16c0-45.056 36.864-81.92 81.92-81.92h942.080v1024h-942.080zM630.374 341.333h-67.174v-122.88h-102.4v122.88h-67.174l118.374 204.8h-307.2l81.92 122.88h450.56l81.92-122.88h-307.2l118.374-204.8z" />
<glyph unicode="&#xe690;" glyph-name="grid" d="M0 873.813v-860.16c0-45.056 36.864-81.92 81.92-81.92h225.28v1024h-225.28c-45.056 0-81.92-36.864-81.92-81.92zM348.16-68.267h327.68v1024h-327.68v-1024zM942.080 955.733h-225.28v-1024h225.28c45.056 0 81.92 36.864 81.92 81.92v860.16c0 45.056-36.864 81.92-81.92 81.92z" />
<glyph unicode="&#xe691;" glyph-name="add" d="M81.92-69.496h860.16c45.056 0 81.92 36.864 81.92 81.92v860.16c0 45.056-36.864 81.92-81.92 81.92h-860.16c-45.056 0-81.92-36.864-81.92-81.92v-860.16c0-45.466 36.864-81.92 81.92-81.92zM863.027 422.024h-329.318v-329.318h-40.96v329.318h-328.909v40.96h329.318v328.909h40.96v-329.318h329.318v-40.55z" />
<glyph unicode="&#xe692;" glyph-name="subscription" d="M68.336 954.784h884.875c37.777 0 68.068-30.63 68.068-68.068v-884.875c0-37.437-30.63-68.068-68.068-68.068h-884.875c-37.437 0-68.068 30.63-68.068 68.068v884.875c0 37.437 30.63 68.068 68.068 68.068zM657.118 348.986c0 76.236-56.495 102.782-114.013 120.139v131.71c18.718-4.765 35.395-12.933 50.71-25.525 33.693-28.928 68.408 6.807 35.054 35.735-22.462 19.739-51.39 33.353-85.765 38.798v53.092c0 14.294-11.571 25.865-25.865 25.865h-5.105c-14.294 0-25.865-11.571-25.865-25.865v-51.050c-65.005-7.147-118.097-50.029-118.097-111.971 0-74.194 58.879-96.315 118.097-112.651v-148.386c-30.29 4.424-54.453 17.697-74.194 34.714-38.117 31.991-63.984-11.571-35.054-36.756 25.865-22.802 63.984-41.18 109.248-45.605v-45.264c0-14.294 11.571-25.865 25.865-25.865h5.105c14.294 0 25.865 11.571 25.865 25.865v46.285c84.404 12.252 114.013 70.45 114.013 116.735v0zM420.924 541.615c0 31.991 26.546 56.495 65.005 62.622v-118.437c-36.756 10.891-65.005 24.844-65.005 55.815v0zM543.105 280.237v130.008c34.714-11.912 60.58-28.588 60.58-63.303 0-25.185-14.294-56.495-60.58-66.706v0z" />
<glyph unicode="&#xe800;" glyph-name="autoplay" d="M545.792 579.925h-33.792v-273.408h33.792v273.408zM478.208 579.925h-33.792v-273.408h33.792v273.408zM409.6 579.925h-33.792v-273.408h33.792v273.408zM340.992 579.925h-33.792v-273.408h33.792v273.408zM1024 887.125v-886.784c0-37.888-30.72-68.608-68.608-68.608h-886.784c-37.888 0-68.608 30.72-68.608 68.608v886.784c0 37.888 30.72 68.608 68.608 68.608h886.784c37.888 0 68.608-30.72 68.608-68.608zM819.2 443.733l-238.592 136.192v-272.384l238.592 136.192z" />
<glyph unicode="&#xe801;" glyph-name="close-panel" d="M955.733 955.733h-887.467c-37.547 0-68.267-30.72-68.267-68.267v-887.467c0-37.547 30.72-68.267 68.267-68.267h887.467c37.547 0 68.267 30.72 68.267 68.267v887.467c0 37.547-30.72 68.267-68.267 68.267zM788.48 191.146l-23.893-23.893-252.587 252.587-252.587-252.587-23.893 23.893 252.587 252.587-252.587 252.587 23.893 23.893 252.587-252.587 252.587 252.587 23.893-23.893-252.587-252.587 252.587-252.587z" />
<glyph unicode="&#xe802;" glyph-name="small_more" d="M511.659 955.733c-282.624 0-511.659-229.035-511.659-511.659s229.035-511.659 511.659-511.659c282.624 0 511.659 229.035 511.659 511.659s-229.376 511.659-511.659 511.659v0zM510.976 358.741c-47.104 0-85.333 38.229-85.333 85.333s38.229 85.333 85.333 85.333 85.333-38.229 85.333-85.333-38.229-85.333-85.333-85.333zM766.976 358.741c-47.104 0-85.333 38.229-85.333 85.333s38.229 85.333 85.333 85.333 85.333-38.229 85.333-85.333-38.229-85.333-85.333-85.333zM254.976 358.741c-47.104 0-85.333 38.229-85.333 85.333s38.229 85.333 85.333 85.333 85.333-38.229 85.333-85.333-38.229-85.333-85.333-85.333z" />
<glyph unicode="&#xe803;" glyph-name="small_more_white" d="M512.341 887.466c118.443 0 229.717-46.080 313.344-129.707s129.707-194.901 129.707-313.344-46.080-229.717-129.707-313.344-194.901-129.707-313.344-129.707-229.717 46.080-313.344 129.707-129.707 194.901-129.707 313.344 46.080 229.717 129.707 313.344 195.243 129.707 313.344 129.707zM512.341 955.733c-282.283 0-511.317-229.035-511.317-511.659s229.035-511.659 511.659-511.659 511.659 229.035 511.659 511.659-229.376 511.659-512 511.659v0zM512 529.408c47.104 0 85.333-38.229 85.333-85.333s-38.229-85.333-85.333-85.333-85.333 38.229-85.333 85.333 38.229 85.333 85.333 85.333zM768 529.408c47.104 0 85.333-38.229 85.333-85.333s-38.229-85.333-85.333-85.333-85.333 38.229-85.333 85.333 38.229 85.333 85.333 85.333zM256 529.408c47.104 0 85.333-38.229 85.333-85.333s-38.229-85.333-85.333-85.333-85.333 38.229-85.333 85.333 38.229 85.333 85.333 85.333z" />
<glyph unicode="&#xe804;" glyph-name="small_delete" d="M1024 443.733c0-282.283-234.155-512-512-512s-512 229.717-512 512 234.155 512 512 512 512-229.717 512-512zM741.035 624.298l-48.128 48.128-180.907-180.565-180.565 180.907-48.469-48.469 180.565-180.565-180.565-180.565 48.128-48.128 180.565 180.565 180.565-180.565 48.128 48.128-180.224 180.565 180.907 180.565z" />
<glyph unicode="&#xe805;" glyph-name="small_delete_white" d="M513.707 880.64c58.709 0 116.053-11.605 170.325-34.816 52.907-22.528 100.352-54.613 141.653-95.573 84.992-84.309 131.755-195.584 131.755-313.344s-46.763-229.035-131.755-313.344c-40.96-40.96-88.747-73.045-141.653-95.573-54.272-23.211-111.616-34.816-170.325-34.816s-116.053 11.605-170.325 34.816c-52.907 22.528-100.352 54.613-141.653 95.573-84.992 84.309-131.755 195.584-131.755 313.344s46.763 229.035 131.755 313.344c40.96 40.96 88.747 73.045 141.653 95.573 54.272 23.211 111.616 34.816 170.325 34.816zM513.707 948.906c-277.504 0-512-229.717-512-512s234.155-512 512-512 512 229.717 512 512-234.155 512-512 512v0zM742.741 617.472l-48.469 48.469-180.565-180.907-180.565 180.907-48.469-48.469 180.907-180.565-180.907-180.565 48.469-48.469 180.565 180.907 180.565-180.907 48.469 48.469-180.907 180.565z" />
<glyph unicode="&#xe806;" glyph-name="reset" d="M955.733 955.733h-887.808c-37.888 0-68.267-30.72-68.267-68.267v-887.808c0-37.888 30.72-68.267 68.267-68.267h887.808c37.888 0 68.267 30.72 68.267 68.267v887.808c0 37.547-30.72 68.267-68.267 68.267zM955.733-0.683h-411.989v171.349h-64.171v-171.349h-411.648v888.149h410.624v-204.8h66.219v204.8h410.965v-888.149zM692.565 665.6l-180.907-180.565-180.565 180.565-48.469-48.128 180.907-180.907-180.907-180.565 48.469-48.469 180.565 180.907 180.907-180.907 48.128 48.469-180.565 180.565 180.565 180.907z" />
<glyph unicode="&#xe807;" glyph-name="small_close" d="M787.797 685.056l-48.128 48.469-241.323-241.664-241.664 241.664-48.128-48.469 241.323-241.323-241.323-241.323 48.128-48.469 241.664 241.664 241.323-241.664 48.128 48.469-241.323 241.323z" />
<glyph unicode="&#xe808;" glyph-name="small_add" d="M887.467 477.866h-341.333v341.333h-68.267v-341.333h-341.333v-68.267h341.333v-341.333h68.267v341.333h341.333z" />
<glyph unicode="&#xe809;" glyph-name="small_edit" d="M149.845 805.888c-199.68-199.68-199.68-523.605 0-723.285s523.605-199.68 723.285 0c199.68 199.68 199.68 523.605 0 723.285s-523.605 199.68-723.285 0v0zM390.485 202.41h-120.832v120.832l362.155 362.155c33.451 33.451 87.381 33.451 120.832 0s33.451-87.381 0-120.832l-362.155-362.155z" />
<glyph unicode="&#xe80a;" glyph-name="small_search" d="M877.568 126.634l-257.707 257.707c39.253 49.152 62.805 111.616 62.805 179.541 0 159.403-129.024 288.427-288.427 288.427s-288.427-129.024-288.427-288.427 129.024-288.427 288.427-288.427c66.901 0 128.341 22.869 177.152 60.757l258.048-258.048 48.128 48.469zM173.739 563.882c0 121.515 98.645 220.16 220.16 220.16s220.16-98.645 220.16-220.16c0-121.515-98.645-220.16-220.16-220.16s-220.16 98.645-220.16 220.16z" />
<glyph unicode="&#xe80b;" glyph-name="small_lock" d="M684.373 477.866v169.984c0 94.549-76.8 171.349-171.349 171.349s-171.691-76.8-171.691-171.349v-169.984h-68.267v-375.467h478.891v375.467h-67.584zM409.6 647.85c0 57.003 46.421 103.083 103.424 103.083s103.083-46.421 103.083-103.083v-169.984h-206.507v169.984z" />
<glyph unicode="&#xe80c;" glyph-name="redo" d="M161.451 439.637c0 70.656 68.949 128.341 153.6 128.341h410.283v-80.213l196.267 114.688-196.267 114.347v-84.651h-410.283c-120.149 0-217.771-86.357-217.771-192.512s97.621-192.512 217.771-192.512h599.381v64.171h-599.381c-84.651 0-153.6 57.685-153.6 128.341z" />
<glyph unicode="&#xe80d;" glyph-name="undo" d="M708.949 632.149h-410.283v84.651l-196.267-114.347 196.267-114.688v80.213h410.283c84.651 0 153.6-57.685 153.6-128.341s-68.949-128.341-153.6-128.341h-599.381v-64.171h599.381c120.149 0 217.771 86.357 217.771 192.512s-97.621 192.512-217.771 192.512z" />
<glyph unicode="&#xe80e;" glyph-name="select_all" d="M750.933 887.466h-68.267v68.267h68.267v-68.267zM887.467 887.466h-68.267v68.267h68.267v-68.267zM1024 887.466h-68.267v68.267h68.267v-68.267zM614.4 887.466h-68.267v68.267h68.267v-68.267zM477.867 887.466h-68.267v68.267h68.267v-68.267zM341.333 887.466h-68.267v68.267h68.267v-68.267zM204.8 887.466h-68.267v68.267h68.267v-68.267zM68.267 750.933h-68.267v68.267h68.267v-68.267zM68.267 614.4h-68.267v68.267h68.267v-68.267zM68.267 477.866h-68.267v68.267h68.267v-68.267zM68.267 341.333h-68.267v68.267h68.267v-68.267zM68.267 202.41h-68.267v68.267h68.267v-68.267zM68.267 68.266h-68.267v68.267h68.267v-68.267zM1024 750.933h-68.267v68.267h68.267v-68.267zM1024 614.4h-68.267v68.267h68.267v-68.267zM1024 477.866h-68.267v68.267h68.267v-68.267zM1024 341.333h-68.267v68.267h68.267v-68.267zM1024 202.41h-68.267v68.267h68.267v-68.267zM1024 68.266h-68.267v68.267h68.267v-68.267zM68.267 887.466h-68.267v68.267h68.267v-68.267zM750.933-68.267h-68.267v68.267h68.267v-68.267zM887.467-68.267h-68.267v68.267h68.267v-68.267zM1024-68.267h-68.267v68.267h68.267v-68.267zM614.4-68.267h-68.267v68.267h68.267v-68.267zM477.867-68.267h-68.267v68.267h68.267v-68.267zM341.333-68.267h-68.267v68.267h68.267v-68.267zM204.8-68.267h-68.267v68.267h68.267v-68.267zM68.267-68.267h-68.267v68.267h68.267v-68.267z" />
<glyph unicode="&#xe80f;" glyph-name="cut" d="M654.677 600.746h-112.64v-273.408h-66.56v273.408h-112.64l145.749 238.933 146.091-238.933zM0 274.773l70.656 48.469 66.219-45.739-73.045-45.739zM147.456 174.762l70.315 48.469 66.219-45.739-73.045-45.739zM294.571 75.093l70.656 48.128 65.877-45.739-73.045-45.739zM441.685-24.918l70.656 48.128 66.219-45.739-73.387-45.739zM1021.269 274.773l-70.656 48.469-66.219-45.739 73.045-45.739zM873.813 174.762l-70.315 48.469-66.219-45.739 73.045-45.739zM726.699 75.093l-70.656 48.128-65.877-45.739 73.045-45.739z" />
<glyph unicode="&#xe810;" glyph-name="paste" d="M371.371 546.133h112.64v273.408h66.56v-273.408h112.64l-145.749-238.933-146.091 238.933zM0.683 276.48l509.611-344.747 509.611 344.747-69.632 45.739-439.979-295.936-440.32 297.984-69.291-47.787z" />
<glyph unicode="&#xe811;" glyph-name="copy" d="M0.683 276.48l509.611-344.747 509.611 344.747-69.632 45.739-439.979-295.936-440.32 297.984-69.291-47.787zM655.701 580.266h-112.64v-273.408h-66.56v273.408h-112.64l145.749 238.933 146.091-238.933z" />
<glyph unicode="&#xe812;" glyph-name="duplicate" d="M514.389 750.933l357.376-241.664-357.376-241.664-357.376 241.664 357.376 241.664zM514.389 854.016l-509.269-344.747 509.269-344.405 509.269 344.405-509.269 344.747zM4.096 276.48l509.611-344.747 509.611 344.747-69.632 45.739-439.979-295.936-440.32 297.984-69.291-47.787z" />
<glyph unicode="&#xe813;" glyph-name="small_admin" d="M378.539 783.018h638.635l-375.467-339.285 382.293-340.651-648.533-0.683-375.467 341.333 378.539 339.285z" />
<glyph unicode="&#xe814;" glyph-name="small_back" d="M378.197 785.066h645.461v-679.936h-640.341l-383.317 338.603 378.197 341.333z" />
<glyph unicode="&#xe900;" glyph-name="small_dropdown" d="M536.576 302.421c-8.875 0-17.408 3.413-24.235 9.899l-214.357 214.357 48.128 48.128 190.123-190.123 190.123 190.123 48.128-48.128-214.357-214.357c-6.144-6.485-14.677-9.899-23.552-9.899z" />
<glyph unicode="&#xe901;" glyph-name="more_tools" d="M955.733 955.733h-955.733v-1024h955.733c37.547 0 68.267 30.72 68.267 68.267v887.467c0 37.547-30.72 68.267-68.267 68.267zM307.2 375.466c-37.547 0-68.267 30.72-68.267 68.267s30.72 68.267 68.267 68.267c37.547 0 68.267-30.72 68.267-68.267s-30.379-68.267-68.267-68.267zM512 375.466c-37.547 0-68.267 30.72-68.267 68.267s30.72 68.267 68.267 68.267c37.547 0 68.267-30.72 68.267-68.267s-30.72-68.267-68.267-68.267zM716.8 375.466c-37.547 0-68.267 30.72-68.267 68.267s30.72 68.267 68.267 68.267c37.547 0 68.267-30.72 68.267-68.267s-30.72-68.267-68.267-68.267z" />
<glyph unicode="&#xe902;" glyph-name="interactions" d="M1024 873.813v-860.16c0-45.056-36.864-81.92-81.92-81.92h-860.16c-45.056 0-81.92 36.864-81.92 81.92v860.16c0 45.056 36.864 81.92 81.92 81.92h860.16c45.056 0 81.92-36.864 81.92-81.92v0zM746.686 378.207c-8.943 53.78-46.502 62.374-64.149 63.385-5.557 0.319-10.716 3.162-13.765 7.861-12.785 19.702-29.92 24.911-44.473 24.911-10.453 0-19.574-2.688-24.794-4.628-0.653-0.244-1.326-0.359-1.986-0.359-2.064 0-4.036 1.126-5.133 3.023-12.985 22.485-31.446 28.286-47.036 28.286-9.074 0-17.173-1.964-22.657-3.746-0.572-0.184-1.813-0.273-2.375-0.273-2.98 0-6.257 2.467-6.257 5.691v115.627c0 26.432-19.515 39.647-39.153 39.647s-39.153-13.215-39.153-39.647v-203.392c0-11.95-9.043-19.34-18.789-19.34-5.92 0-11.625 2.726-15.547 8.81l-18.834 29.417c-8.324 13.864-20.35 19.613-32.331 19.615-27.080 0.002-53.566-29.362-34.749-60.707l148.285-286.701c0.968-1.873 2.907-3.289 5.002-3.289h208.239c2.973 0 5.432 2.575 5.612 5.569l5.211 85.791c0.059 0.989 0.384 2.012 0.925 2.841 51.691 79.031 66.491 129.968 57.906 181.606zM476.118 686.377c31.389 0 56.504-19.414 64.811-47.617 1.806 6.137 2.791 12.626 2.791 19.354 0 37.484-30.1 67.871-67.236 67.871-37.131 0-67.234-30.387-67.234-67.871 0-6.283 0.864-12.36 2.446-18.135 8.671 27.534 33.494 46.397 64.422 46.397zM400.692 574.288c5.992 5.14 6.72 14.211 1.63 20.26-14.916 17.711-23.129 40.287-23.129 63.567 0 54.151 43.645 98.208 97.289 98.208s97.289-44.057 97.289-98.208c0-23.304-8.227-45.897-23.162-63.613-5.097-6.043-4.373-15.117 1.616-20.26 2.679-2.302 5.958-3.428 9.221-3.428 4.029 0 8.035 1.717 10.849 5.057 19.315 22.911 29.951 52.12 29.951 82.243 0 70.003-56.416 126.952-125.764 126.952s-125.764-56.949-125.764-126.952c0-30.092 10.621-59.279 29.903-82.183 5.095-6.048 14.074-6.781 20.070-1.643z" />
<glyph unicode="&#xe906;" glyph-name="align" d="M1024 873.813v0c0 45.056-36.864 81.92-81.92 81.92h-860.16c-45.056 0-81.92-36.864-81.92-81.92v-860.16c0-45.056 36.864-81.92 81.92-81.92h860.16c45.056 0 81.92 36.864 81.92 81.92v860.16zM763.84 371.152h-142.613v140.848h142.613v-140.848zM548.468 196.348h-70.601v493.145h70.601v-493.145zM408.853 371.152h-142.613v140.848h142.613v-140.848z" />
<glyph unicode="&#xe907;" glyph-name="align_center" d="M575.128-62.538h-113.808v113.808h113.808v-113.808zM575.128 165.080h-113.808v113.808h113.808v-113.808zM575.128 392.697h-113.808v113.808h113.808v-113.808zM575.128 620.314h-113.808v113.808h113.808v-113.808zM575.128 847.931h-113.808v113.808h113.808v-113.808z" />
<glyph unicode="&#xe908;" glyph-name="align_distribute" horiz-adv-x="2048" d="M28.175 585.993h284.521v-284.521h-284.521v284.521zM284.244 557.542v-227.617h-227.617v227.617h227.617zM341.149 614.446h-341.425v-341.425h341.425v341.425zM540.313 16.951h56.904v-56.904h-56.904v56.904zM625.67 45.403h-113.809v-113.809h113.809v113.809zM540.313 244.568h56.904v-56.904h-56.904v56.904zM625.67 273.020h-113.809v-113.809h113.809v113.809zM540.313 472.185h56.904v-56.904h-56.904v56.904zM625.67 500.637h-113.809v-113.809h113.809v113.809zM540.313 699.802h56.904v-56.904h-56.904v56.904zM625.67 728.254h-113.809v-113.809h113.809v113.809zM540.313 927.42h56.904v-56.904h-56.904v56.904zM625.67 955.871h-113.809v-113.809h113.809v113.809zM824.835 585.993h284.521v-284.521h-284.521v284.521zM1080.904 557.542v-227.617h-227.617v227.617h227.617zM1137.809 614.446h-341.425v-341.425h341.425v341.425zM1336.974 16.951h56.904v-56.904h-56.904v56.904zM1422.33 45.403h-113.809v-113.809h113.809v113.809zM1336.974 244.568h56.904v-56.904h-56.904v56.904zM1422.33 273.020h-113.809v-113.809h113.809v113.809zM1336.974 472.185h56.904v-56.904h-56.904v56.904zM1422.33 500.637h-113.809v-113.809h113.809v113.809zM1336.974 699.802h56.904v-56.904h-56.904v56.904zM1422.33 728.254h-113.809v-113.809h113.809v113.809zM1336.974 927.42h56.904v-56.904h-56.904v56.904zM1422.33 955.871h-113.809v-113.809h113.809v113.809zM1621.494 585.993h284.521v-284.521h-284.521v284.521zM1877.564 557.542v-227.617h-227.617v227.617h227.617zM1934.468 614.446h-341.425v-341.425h341.425v341.425z" />
<glyph unicode="&#xe909;" glyph-name="align_side" d="M730.562 263.023v120.467h-722.827v120.467h722.827v120.467l301.173-180.71-301.173-180.71z" />
</font>
</defs>
</svg>
