<?xml version="1.0" encoding="UTF-8" standalone="no"?>
<svg
   xmlns:dc="http://purl.org/dc/elements/1.1/"
   xmlns:cc="http://creativecommons.org/ns#"
   xmlns:rdf="http://www.w3.org/1999/02/22-rdf-syntax-ns#"
   xmlns:svg="http://www.w3.org/2000/svg"
   xmlns="http://www.w3.org/2000/svg"
   xmlns:sodipodi="http://sodipodi.sourceforge.net/DTD/sodipodi-0.dtd"
   xmlns:inkscape="http://www.inkscape.org/namespaces/inkscape"
   enable-background="new 0 0 512 512"
   id="Laag_1"
   version="1.1"
   viewBox="0 0 512 512"
   xml:space="preserve"
   inkscape:version="0.91 r13725"
   sodipodi:docname="facebook.svg"><metadata
     id="metadata12"><rdf:RDF><cc:Work
         rdf:about=""><dc:format>image/svg+xml</dc:format><dc:type
           rdf:resource="http://purl.org/dc/dcmitype/StillImage" /></cc:Work></rdf:RDF></metadata><defs
     id="defs10" /><sodipodi:namedview
     pagecolor="#ffffff"
     bordercolor="#666666"
     borderopacity="1"
     objecttolerance="10"
     gridtolerance="10"
     guidetolerance="10"
     inkscape:pageopacity="0"
     inkscape:pageshadow="2"
     inkscape:window-width="877"
     inkscape:window-height="480"
     id="namedview8"
     showgrid="false"
     inkscape:zoom="0.4609375"
     inkscape:cx="292.53144"
     inkscape:cy="256"
     inkscape:window-x="0"
     inkscape:window-y="0"
     inkscape:window-maximized="0"
     inkscape:current-layer="Laag_1" /><g
     id="HbKWC7.tif"
     style="fill:#ffffff;fill-opacity:1"><g
       id="g4"
       style="fill:#ffffff;fill-opacity:1"><path
         d="M210.3,440.1c0-53.6,0-107.1,0-160.7    c0-3.3,0-6.7,0-10c0-1-0.3-1.3-1.3-1.3c-14.3,0-28.6,0-42.9,0c-2,0-2,0-2-2.1c0-19.7,0-39.3,0-59c0-1.9,0-1.9,1.9-1.9    c14.2,0,28.3,0,42.5,0c1.8,0,1.8,0,1.8-1.7c0.1-7.7-0.1-15.5,0.2-23.2c0.3-7,1-14.1,1.8-21.1c0.9-7.9,2.6-15.6,4.9-23.1    c4.1-13.5,9.9-26.2,19.1-37.1c6.2-7.4,14.2-12.5,22.9-16.4c6.8-3,13.8-5.2,21.1-6.8c7.3-1.6,14.6-2.5,22.1-3.2    c13.3-1.2,26.6-0.8,39.9-0.4c1.4,0,2.9,0.2,4.3,0.2c0.9,0,1.4,0.3,1.3,1.3c0,0.4,0,0.7,0,1.1c0,19.7,0,39.3,0,59    c0,2.4,0,2.3-2.5,2.2c-7.4-0.3-14.8-0.7-22.2-0.7c-7.2,0-14.5,0.9-21.3,3.3c-9.3,3.2-16.1,9.4-19.9,18.5c-1.5,3.6-2,7.6-2.1,11.5    c-0.5,11.6-0.8,23.2-1.1,34.8c-0.1,2,0,2,1.9,2c21.8,0,43.5,0,65.3,0c2,0,2,0,2,2c0,19.7,0,39.3,0,59c0,2,0,2-2.1,2    c-21.7,0-43.3,0-65,0c-2.2,0-2.2,0-2.2,2.2c0,55.9,0,111.8,0,167.7c0,0.7-0.1,1.3-0.1,2C255.8,440.1,233.1,440.1,210.3,440.1z"
         fill="none"
         stroke="#575756"
         stroke-miterlimit="10"
         stroke-width="7"
         id="path6"
         style="fill:#ffffff;fill-opacity:1" /></g></g></svg>