<?xml version="1.0" encoding="UTF-8" standalone="no"?>
<svg
   xmlns:dc="http://purl.org/dc/elements/1.1/"
   xmlns:cc="http://creativecommons.org/ns#"
   xmlns:rdf="http://www.w3.org/1999/02/22-rdf-syntax-ns#"
   xmlns:svg="http://www.w3.org/2000/svg"
   xmlns="http://www.w3.org/2000/svg"
   xmlns:sodipodi="http://sodipodi.sourceforge.net/DTD/sodipodi-0.dtd"
   xmlns:inkscape="http://www.inkscape.org/namespaces/inkscape"
   enable-background="new 0 0 512 512"
   id="Laag_1"
   version="1.1"
   viewBox="0 0 512 512"
   xml:space="preserve"
   inkscape:version="0.91 r13725"
   sodipodi:docname="twitter.svg"><metadata
     id="metadata12"><rdf:RDF><cc:Work
         rdf:about=""><dc:format>image/svg+xml</dc:format><dc:type
           rdf:resource="http://purl.org/dc/dcmitype/StillImage" /></cc:Work></rdf:RDF></metadata><defs
     id="defs10" /><sodipodi:namedview
     pagecolor="#ffffff"
     bordercolor="#666666"
     borderopacity="1"
     objecttolerance="10"
     gridtolerance="10"
     guidetolerance="10"
     inkscape:pageopacity="0"
     inkscape:pageshadow="2"
     inkscape:window-width="877"
     inkscape:window-height="480"
     id="namedview8"
     showgrid="false"
     inkscape:zoom="0.4609375"
     inkscape:cx="235.70476"
     inkscape:cy="256"
     inkscape:window-x="0"
     inkscape:window-y="0"
     inkscape:window-maximized="0"
     inkscape:current-layer="Laag_1" /><g
     id="_x35_92u79.tif"
     style="fill:#ffffff;fill-opacity:1"><g
       id="g4"
       style="fill:#ffffff;fill-opacity:1"><path
         d="M320.9,108.6c3.2,0,6.4,0,9.6,0    c0.4,0.1,0.8,0.2,1.2,0.3c2.2,0.3,4.3,0.5,6.5,0.8c13.5,2.3,25.4,7.9,35.8,16.7c1.9,1.6,3.6,3.3,5.4,5c0.4,0.4,0.8,0.7,1.5,0.4    c0.3-0.1,0.6-0.1,0.8-0.2c15.5-3.3,30.2-8.9,44-16.8c0.4-0.3,0.9-0.5,1.3-0.7c0.1,0.1,0.2,0.2,0.2,0.2    c-5.8,17.2-16.5,30.6-31.8,40.5c1.3-0.1,2.6-0.2,3.8-0.4c12.6-1.9,24.7-5.3,36.4-10.3c0.5-0.2,1-0.5,1.5-0.8c0,0.2,0,0.4,0,0.6    c-0.3,0.4-0.6,0.8-0.9,1.2c-7.9,11.4-17.1,21.5-27.7,30.4c-2.7,2.2-5.5,4.3-8.2,6.5c0,0.7,0,1.4,0,2.2c0.4,9.9,0,19.7-1.1,29.6    c-1,9-2.5,17.8-4.7,26.6c-8.2,33.4-23,63.4-45.1,89.8c-19.2,23-42.2,40.9-69.4,53.6c-24.9,11.6-51.2,17.8-78.6,19.2    c-0.6,0-1.1,0.2-1.7,0.2c-7.3,0-14.6,0-21.8,0c-0.5-0.1-0.9-0.2-1.4-0.2c-6.2-0.3-12.3-0.9-18.5-1.8c-11.3-1.6-22.3-4.2-33.2-7.6    c-17.4-5.5-33.8-13.1-49.2-22.8c-0.3-0.2-0.7-0.5-1-0.7c19.6,2,38.9,0.6,57.8-4.7c18.9-5.3,36-14,51.5-26.1    c-10.4-0.5-20.2-2.8-29.6-7.1c-9.4-4.4-17.5-10.5-24.4-18.3c-6.5-7.3-14.5-21.7-14.8-26.4c5.4,1,10.9,1.5,16.3,1.2    c5.5-0.2,10.9-0.9,16.2-2.5c-42-9.6-60.3-47.6-58.7-73.9c5.1,2.8,10.4,5,16,6.5c6.5,1.8,15,3,16.9,2.4    c-37.4-26.3-39-72.3-22.2-98.9c19,23.1,41.7,41.5,68.3,55.1c26.6,13.5,54.9,21,84.8,22.6c-0.1-0.6-0.1-1-0.2-1.4    c-0.4-2.4-0.8-4.7-1.1-7.1c-1.1-8.7-0.5-17.4,1.6-25.9c7.5-31.1,33.8-53.2,64-56.5C318.5,109,319.7,108.8,320.9,108.6z"
         fill="none"
         id="path6"
         style="fill:#ffffff;fill-opacity:1" /></g></g></svg>